<?xml version="1.0" standalone="no"?><!DOCTYPE svg PUBLIC "-//W3C//DTD SVG 1.1//EN" "http://www.w3.org/Graphics/SVG/1.1/DTD/svg11.dtd"><svg t="1500316460515" class="icon" style="" viewBox="0 0 1024 1024" version="1.1" xmlns="http://www.w3.org/2000/svg" p-id="567" xmlns:xlink="http://www.w3.org/1999/xlink" width="200" height="200"><defs><style type="text/css"></style></defs><path d="M345.599 279.602c141.738-86.688 491.478 175.102 458.977 305.985-9.561 38.502-50.233 57.754-92.995 77.996-159.309 75.41-395.663 30.102-448.478-98.995-21.62-52.847-8.758-110.628-3-136.493 3.451-15.501 26.357-112.323 85.496-148.493z" p-id="568"></path><path d="M230.105 234.604c-75.624 74.971-51.908 210.33-23.999 281.986 78.312 201.065 364.661 349.936 542.973 245.988C829.18 715.882 886.345 618.83 882.572 524.09 873.881 305.832 546.48 217.852 518.09 210.606c-73.428-18.743-209.766-53.545-287.985 23.998z" p-id="569"></path><path d="M522.59 330.6c72.294-1.479 143.198 53.28 163.492 125.994 2.755 9.872 20.718 78.272-19.499 131.993-54.929 73.373-170.227 55.029-224.989 34.498-24.016-9.004-58.14-21.797-76.496-55.497-28.433-52.2 2.074-115.802 11.999-136.493 6.933-14.453 20.171-41.279 49.498-64.497 10.309-8.163 46.747-34.991 95.995-35.998z" p-id="570"></path></svg>